<?xml version="1.0" standalone="no"?>
<!DOCTYPE svg PUBLIC "-//W3C//DTD SVG 20010904//EN"
 "http://www.w3.org/TR/2001/REC-SVG-20010904/DTD/svg10.dtd">
<svg version="1.0" xmlns="http://www.w3.org/2000/svg"
 width="594.000000pt" height="594.000000pt" viewBox="0 0 594.000000 594.000000"
 preserveAspectRatio="xMidYMid meet">
<metadata>
Created by potrace 1.14, written by Peter Selinger 2001-2017
</metadata>
<g transform="translate(0.000000,594.000000) scale(0.100000,-0.100000)"
fill="#000000" stroke="none">
<path d="M0 2970 l0 -2970 2970 0 2970 0 0 2970 0 2970 -2970 0 -2970 0 0
-2970z m2390 2195 l0 -25 130 0 c123 0 130 -1 130 -20 0 -19 7 -20 130 -20
123 0 130 -1 130 -20 0 -19 7 -20 135 -20 l135 0 0 -25 c0 -25 1 -25 85 -25
78 0 85 -2 85 -20 0 -19 7 -20 110 -20 103 0 110 -1 110 -20 0 -19 7 -20 155
-20 l155 0 0 -25 c0 -25 1 -25 85 -25 78 0 85 -2 85 -20 0 -19 7 -20 135 -20
l135 0 0 -25 0 -25 150 0 c143 0 150 -1 150 -20 0 -19 7 -20 130 -20 123 0
130 -1 130 -20 0 -19 7 -20 220 -20 l220 0 0 -25 0 -25 245 0 c238 0 245 -1
245 -20 0 -13 7 -20 20 -20 19 0 20 -7 20 -90 0 -83 -1 -90 -20 -90 -13 0 -20
-7 -20 -20 0 -17 -7 -20 -45 -20 -38 0 -45 -3 -45 -20 0 -15 -7 -20 -25 -20
-20 0 -25 -5 -25 -25 0 -18 -5 -25 -20 -25 -13 0 -20 -7 -20 -20 0 -13 -7 -20
-20 -20 -15 0 -20 -7 -20 -25 0 -23 -4 -25 -45 -25 -38 0 -45 -3 -45 -20 0
-15 -7 -20 -25 -20 -18 0 -25 -5 -25 -20 0 -13 -7 -20 -20 -20 -15 0 -20 -7
-20 -25 0 -23 -4 -25 -45 -25 -38 0 -45 -3 -45 -20 0 -13 -7 -20 -20 -20 -13
0 -20 -7 -20 -20 0 -13 -7 -20 -20 -20 -15 0 -20 -7 -20 -25 0 -23 -4 -25 -45
-25 -38 0 -45 -3 -45 -20 0 -15 -7 -20 -25 -20 -20 0 -25 -5 -25 -25 0 -18 -5
-25 -20 -25 -13 0 -20 -7 -20 -20 0 -17 -7 -20 -45 -20 -38 0 -45 -3 -45 -20
0 -13 -7 -20 -20 -20 -15 0 -20 -7 -20 -25 0 -20 -5 -25 -25 -25 -18 0 -25 -5
-25 -20 0 -13 -7 -20 -20 -20 -15 0 -20 -7 -20 -25 0 -23 -4 -25 -45 -25 -38
0 -45 -3 -45 -20 0 -13 -7 -20 -20 -20 -13 0 -20 -7 -20 -20 0 -13 -7 -20 -20
-20 -15 0 -20 -7 -20 -25 0 -20 -5 -25 -25 -25 -18 0 -25 -5 -25 -20 0 -17 -7
-20 -45 -20 -38 0 -45 -3 -45 -20 0 -13 -7 -20 -20 -20 -15 0 -20 -7 -20 -25
0 -18 -5 -25 -20 -25 -13 0 -20 -7 -20 -20 0 -17 -7 -20 -45 -20 -41 0 -45 -2
-45 -25 0 -18 -5 -25 -20 -25 -13 0 -20 -7 -20 -20 0 -15 -7 -20 -25 -20 -18
0 -25 -5 -25 -20 0 -13 -7 -20 -20 -20 -15 0 -20 -7 -20 -25 0 -23 -4 -25 -45
-25 -38 0 -45 -3 -45 -20 0 -13 -7 -20 -20 -20 -15 0 -20 -7 -20 -25 0 -20 -5
-25 -25 -25 -18 0 -25 -5 -25 -20 0 -13 -7 -20 -20 -20 -13 0 -20 -7 -20 -20
0 -17 -7 -20 -45 -20 -41 0 -45 -2 -45 -25 0 -18 -5 -25 -20 -25 -13 0 -20 -7
-20 -20 0 -15 -7 -20 -25 -20 -18 0 -25 -5 -25 -20 0 -13 -7 -20 -20 -20 -15
0 -20 -7 -20 -25 0 -23 -4 -25 -45 -25 -38 0 -45 -3 -45 -20 0 -13 -7 -20 -20
-20 -15 0 -20 -7 -20 -25 0 -20 -5 -25 -25 -25 -18 0 -25 -5 -25 -20 0 -17 -7
-20 -40 -20 -33 0 -40 -3 -40 -20 0 -15 -7 -20 -25 -20 -20 0 -25 -5 -25 -25
0 -18 -5 -25 -20 -25 -13 0 -20 -7 -20 -20 0 -15 -7 -20 -25 -20 -18 0 -25 -5
-25 -20 0 -13 -7 -20 -20 -20 -15 0 -20 -7 -20 -25 0 -23 -4 -25 -45 -25 -38
0 -45 -3 -45 -20 0 -13 -7 -20 -20 -20 -15 0 -20 -7 -20 -25 0 -18 -5 -25 -20
-25 -13 0 -20 -7 -20 -20 0 -17 -7 -20 -45 -20 -38 0 -45 -3 -45 -20 0 -15 -7
-20 -25 -20 -20 0 -25 -5 -25 -25 0 -18 -5 -25 -20 -25 -13 0 -20 -7 -20 -20
0 -13 -7 -20 -20 -20 -15 0 -20 -7 -20 -25 0 -20 -5 -25 -25 -25 -18 0 -25 -5
-25 -20 0 -13 -7 -20 -20 -20 -13 0 -20 -7 -20 -20 0 -17 -7 -20 -45 -20 -41
0 -45 -2 -45 -25 0 -18 -5 -25 -20 -25 -13 0 -20 -7 -20 -20 0 -15 -7 -20 -25
-20 -18 0 -25 -5 -25 -20 0 -13 -7 -20 -20 -20 -15 0 -20 -7 -20 -25 0 -23 -4
-25 -45 -25 -38 0 -45 -3 -45 -20 0 -13 -7 -20 -20 -20 -15 0 -20 -7 -20 -25
0 -20 -5 -25 -25 -25 -18 0 -25 -5 -25 -20 0 -13 -7 -20 -20 -20 -13 0 -20 -7
-20 -20 0 -17 -7 -20 -45 -20 -41 0 -45 -2 -45 -25 0 -18 -5 -25 -20 -25 -13
0 -20 -7 -20 -20 0 -13 -7 -20 -20 -20 -15 0 -20 -7 -20 -25 0 -20 -5 -25 -25
-25 -18 0 -25 -5 -25 -20 0 -13 -7 -20 -20 -20 -13 0 -20 -7 -20 -20 0 -15 -7
-20 -25 -20 -20 0 -25 -5 -25 -25 0 -22 -4 -25 -40 -25 -33 0 -40 -3 -40 -20
0 -15 -7 -20 -25 -20 -18 0 -25 -5 -25 -20 0 -13 -7 -20 -20 -20 -15 0 -20 -7
-20 -25 0 -20 -5 -25 -25 -25 -18 0 -25 -5 -25 -20 0 -13 -7 -20 -20 -20 -15
0 -20 -7 -20 -25 0 -23 -4 -25 -45 -25 -38 0 -45 -3 -45 -20 0 -13 -7 -20 -20
-20 -13 0 -20 -7 -20 -20 0 -13 -7 -20 -20 -20 -15 0 -20 -7 -20 -25 0 -20 -5
-25 -25 -25 -18 0 -25 -5 -25 -20 0 -13 -7 -20 -20 -20 -13 0 -20 -7 -20 -20
0 -15 -7 -20 -25 -20 -20 0 -25 -5 -25 -25 0 -22 -4 -25 -40 -25 -33 0 -40 -3
-40 -20 0 -15 -7 -20 -25 -20 -20 0 -25 -5 -25 -25 0 -18 -5 -25 -20 -25 -13
0 -20 -7 -20 -20 0 -13 -7 -20 -20 -20 -13 0 -20 -7 -20 -20 0 -15 -7 -20 -25
-20 -20 0 -25 -5 -25 -25 0 -18 -5 -25 -20 -25 -18 0 -20 -7 -20 -65 0 -58 2
-65 20 -65 13 0 20 7 20 20 0 19 7 20 110 20 l110 0 0 25 0 25 155 0 c148 0
155 1 155 20 0 19 7 20 260 20 l260 0 0 25 0 25 265 0 c258 0 265 1 265 20 0
20 7 20 700 20 693 0 700 0 700 -20 0 -19 7 -20 240 -20 l240 0 0 -25 0 -25
245 0 c238 0 245 -1 245 -20 0 -19 7 -20 150 -20 l150 0 0 -25 c0 -24 2 -25
65 -25 58 0 65 -2 65 -20 0 -15 7 -20 25 -20 24 0 25 -2 25 -65 0 -63 -1 -65
-25 -65 -18 0 -25 -5 -25 -20 0 -19 -7 -20 -150 -20 -143 0 -150 1 -150 20 0
19 -7 20 -175 20 -168 0 -175 1 -175 20 0 19 -7 20 -220 20 l-220 0 0 25 0 25
-440 0 c-433 0 -440 0 -440 20 0 19 -7 20 -110 20 -103 0 -110 -1 -110 -20 0
-20 -7 -20 -460 -20 l-460 0 0 -25 0 -25 -240 0 c-233 0 -240 -1 -240 -20 0
-19 -7 -20 -220 -20 -213 0 -220 -1 -220 -20 0 -19 -7 -20 -130 -20 l-130 0 0
-25 0 -25 -240 0 -240 0 0 25 c0 20 -5 25 -25 25 l-25 0 0 105 0 105 25 0 c20
0 25 5 25 25 0 18 5 25 20 25 13 0 20 7 20 20 0 13 7 20 20 20 15 0 20 7 20
25 0 20 5 25 25 25 18 0 25 5 25 20 0 13 7 20 20 20 13 0 20 7 20 20 0 15 7
20 25 20 20 0 25 5 25 25 0 18 5 25 20 25 13 0 20 7 20 20 0 13 7 20 20 20 15
0 20 7 20 25 0 20 5 25 25 25 18 0 25 5 25 20 0 13 7 20 20 20 13 0 20 7 20
20 0 15 7 20 25 20 20 0 25 5 25 25 0 18 5 25 20 25 13 0 20 7 20 20 0 13 7
20 20 20 13 0 20 7 20 20 0 15 7 20 25 20 20 0 25 5 25 25 0 18 5 25 20 25 13
0 20 7 20 20 0 13 7 20 20 20 15 0 20 7 20 25 0 23 4 25 45 25 38 0 45 3 45
20 0 15 7 20 25 20 18 0 25 5 25 20 0 13 7 20 20 20 15 0 20 7 20 25 0 18 5
25 20 25 13 0 20 7 20 20 0 15 7 20 25 20 18 0 25 5 25 20 0 17 7 20 40 20 36
0 40 3 40 25 0 20 5 25 25 25 18 0 25 5 25 20 0 13 7 20 20 20 15 0 20 7 20
25 0 20 5 25 25 25 18 0 25 5 25 20 0 13 7 20 20 20 13 0 20 7 20 20 0 13 7
20 20 20 15 0 20 7 20 25 0 23 4 25 45 25 38 0 45 3 45 20 0 15 7 20 25 20 20
0 25 5 25 25 0 18 5 25 20 25 13 0 20 7 20 20 0 17 7 20 45 20 38 0 45 3 45
20 0 13 7 20 20 20 15 0 20 7 20 25 0 18 5 25 20 25 13 0 20 7 20 20 0 15 7
20 25 20 18 0 25 5 25 20 0 13 7 20 20 20 15 0 20 7 20 25 0 23 4 25 45 25 38
0 45 3 45 20 0 13 7 20 20 20 15 0 20 7 20 25 0 20 5 25 25 25 18 0 25 5 25
20 0 13 7 20 20 20 13 0 20 7 20 20 0 17 7 20 45 20 41 0 45 2 45 25 0 18 5
25 20 25 13 0 20 7 20 20 0 15 7 20 25 20 20 0 25 5 25 25 0 18 5 25 20 25 13
0 20 7 20 20 0 13 7 20 20 20 13 0 20 7 20 20 0 17 7 20 45 20 41 0 45 2 45
25 0 20 5 25 25 25 18 0 25 5 25 20 0 13 7 20 20 20 13 0 20 7 20 20 0 13 7
20 20 20 15 0 20 7 20 25 0 23 4 25 45 25 38 0 45 3 45 20 0 13 7 20 20 20 15
0 20 7 20 25 0 20 5 25 25 25 18 0 25 5 25 20 0 13 7 20 20 20 13 0 20 7 20
20 0 17 7 20 45 20 41 0 45 2 45 25 0 18 5 25 20 25 13 0 20 7 20 20 0 15 7
20 25 20 18 0 25 5 25 20 0 17 7 20 45 20 41 0 45 2 45 25 0 18 5 25 20 25 13
0 20 7 20 20 0 13 7 20 20 20 15 0 20 7 20 25 0 20 5 25 25 25 18 0 25 5 25
20 0 17 7 20 40 20 33 0 40 3 40 20 0 15 7 20 25 20 20 0 25 5 25 25 0 18 5
25 20 25 13 0 20 7 20 20 0 15 7 20 25 20 20 0 25 5 25 25 0 23 4 25 40 25 33
0 40 3 40 20 0 15 7 20 25 20 18 0 25 5 25 20 0 13 7 20 20 20 15 0 20 7 20
25 0 20 5 25 25 25 18 0 25 5 25 20 0 17 7 20 40 20 33 0 40 3 40 20 0 15 7
20 25 20 20 0 25 5 25 25 0 18 5 25 20 25 13 0 20 7 20 20 0 13 7 20 20 20 15
0 20 7 20 25 0 23 4 25 45 25 38 0 45 3 45 20 0 15 7 20 25 20 18 0 25 5 25
20 0 13 7 20 20 20 15 0 20 7 20 25 0 18 5 25 20 25 13 0 20 7 20 20 0 17 7
20 45 20 41 0 45 2 45 25 0 18 5 25 20 25 13 0 20 7 20 20 0 15 7 20 25 20 18
0 25 5 25 20 0 17 7 20 45 20 41 0 45 2 45 25 0 18 5 25 20 25 13 0 20 7 20
20 0 13 7 20 20 20 13 0 20 7 20 20 0 17 7 20 45 20 41 0 45 2 45 25 0 20 5
25 25 25 18 0 25 5 25 20 0 13 7 20 20 20 15 0 20 7 20 25 0 18 5 25 20 25 13
0 20 7 20 20 0 15 7 20 25 20 18 0 25 5 25 20 0 19 -7 20 -175 20 l-175 0 0
25 0 25 -155 0 c-148 0 -155 1 -155 20 0 19 -7 20 -130 20 -123 0 -130 1 -130
20 0 19 -7 20 -155 20 l-155 0 0 25 0 25 -110 0 c-103 0 -110 1 -110 20 0 19
-7 20 -110 20 l-110 0 0 25 0 25 -155 0 c-148 0 -155 1 -155 20 0 18 -7 20
-85 20 -78 0 -85 2 -85 20 0 19 -7 20 -110 20 l-110 0 0 25 0 25 -130 0 c-123
0 -130 1 -130 20 0 19 -7 20 -110 20 l-110 0 0 25 0 25 -175 0 c-168 0 -175 1
-175 20 0 20 -7 20 -350 20 -343 0 -350 0 -350 -20 0 -19 -7 -20 -110 -20
l-110 0 0 -25 c0 -23 -4 -25 -45 -25 -38 0 -45 -3 -45 -20 0 -18 -7 -20 -65
-20 -63 0 -65 -1 -65 -25 0 -23 -4 -25 -45 -25 -38 0 -45 -3 -45 -20 0 -17 -7
-20 -45 -20 -38 0 -45 -3 -45 -20 0 -13 -7 -20 -20 -20 -15 0 -20 -7 -20 -25
0 -23 -4 -25 -45 -25 -38 0 -45 -3 -45 -20 0 -13 -7 -20 -20 -20 -15 0 -20 -7
-20 -25 0 -20 -5 -25 -25 -25 -18 0 -25 -5 -25 -20 0 -13 -7 -20 -20 -20 -13
0 -20 -7 -20 -20 0 -13 -7 -20 -20 -20 -17 0 -20 -7 -20 -45 0 -41 -2 -45 -25
-45 -23 0 -25 -4 -25 -45 0 -38 -3 -45 -20 -45 -17 0 -20 -7 -20 -45 0 -41 -2
-45 -25 -45 l-25 0 0 -130 c0 -123 -1 -130 -20 -130 -13 0 -20 -7 -20 -20 0
-13 7 -20 20 -20 19 0 20 -7 20 -135 l0 -135 25 0 c23 0 25 -4 25 -40 0 -33 3
-40 20 -40 17 0 20 -7 20 -45 0 -41 2 -45 25 -45 18 0 25 -5 25 -20 0 -13 7
-20 20 -20 15 0 20 -7 20 -25 0 -18 5 -25 20 -25 13 0 20 -7 20 -20 0 -15 7
-20 25 -20 20 0 25 -5 25 -25 0 -23 4 -25 45 -25 38 0 45 -3 45 -20 0 -13 7
-20 20 -20 13 0 20 -7 20 -20 0 -18 7 -20 85 -20 84 0 85 0 85 -25 l0 -25 265
0 265 0 0 25 c0 25 1 25 90 25 83 0 90 1 90 20 0 17 7 20 40 20 33 0 40 3 40
20 0 17 7 20 45 20 41 0 45 2 45 25 0 23 4 25 45 25 38 0 45 3 45 20 0 13 7
20 20 20 15 0 20 7 20 25 l0 25 110 0 110 0 0 -90 c0 -83 -1 -90 -20 -90 -13
0 -20 -7 -20 -20 0 -17 -7 -20 -45 -20 -41 0 -45 -2 -45 -25 0 -18 -5 -25 -20
-25 -13 0 -20 -7 -20 -20 0 -15 -7 -20 -25 -20 -20 0 -25 -5 -25 -25 0 -24 -2
-25 -65 -25 -58 0 -65 -2 -65 -20 0 -17 -7 -20 -45 -20 -38 0 -45 -3 -45 -20
0 -18 -7 -20 -65 -20 -63 0 -65 -1 -65 -25 l0 -25 -395 0 -395 0 0 25 c0 24
-2 25 -65 25 -58 0 -65 2 -65 20 0 13 -7 20 -20 20 -13 0 -20 7 -20 20 0 17
-7 20 -45 20 -41 0 -45 2 -45 25 0 23 -4 25 -45 25 -38 0 -45 3 -45 20 0 13
-7 20 -20 20 -15 0 -20 7 -20 25 0 20 -5 25 -25 25 -18 0 -25 5 -25 20 0 13
-7 20 -20 20 -17 0 -20 7 -20 45 0 38 -3 45 -20 45 -13 0 -20 7 -20 20 0 15
-7 20 -25 20 -23 0 -25 4 -25 45 0 38 -3 45 -20 45 -17 0 -20 7 -20 45 0 38
-3 45 -20 45 -18 0 -20 7 -20 65 0 63 -1 65 -25 65 l-25 0 0 240 0 240 25 0
c24 0 25 2 25 65 0 58 2 65 20 65 17 0 20 7 20 45 0 38 3 45 20 45 17 0 20 7
20 45 0 41 2 45 25 45 23 0 25 4 25 40 0 33 3 40 20 40 15 0 20 7 20 25 0 18
5 25 20 25 17 0 20 7 20 45 l0 45 45 0 45 0 0 40 c0 36 3 40 25 40 20 0 25 5
25 25 0 23 4 25 40 25 33 0 40 3 40 20 0 15 7 20 25 20 20 0 25 5 25 25 0 23
4 25 45 25 38 0 45 3 45 20 0 17 7 20 40 20 33 0 40 3 40 20 0 17 7 20 45 20
41 0 45 2 45 25 0 23 4 25 45 25 38 0 45 3 45 20 0 18 7 20 65 20 58 0 65 2
65 20 0 19 7 20 90 20 89 0 90 0 90 25 l0 25 525 0 525 0 0 -25z"/>
</g>
</svg>
